<?xml version="1.0" encoding="utf-8"?>
<svg xmlns="http://www.w3.org/2000/svg"
	xmlns:xlink="http://www.w3.org/1999/xlink"
	width="47px" height="33px" viewBox="0 0 47 33">
<path fillRule="evenodd" d="M 43.21 20.49C 43.48 19.48 43.64 18.42 43.64 17.32 43.64 10.49 38.01 4.95 31.05 4.95 29.27 4.95 27.57 5.32 26.03 5.98 24.48 2.46 20.93-0 16.79-0 11.22-0 6.71 4.43 6.71 9.9 6.71 10.27 6.78 10.62 6.82 10.97 2.8 12.81 0 16.8 0 21.45 0 27.83 5.26 33 11.75 33 11.75 33 40.29 33 40.29 33 43.99 33 47 30.04 47 26.4 47 23.79 45.45 21.56 43.21 20.49ZM 40.29 31.35C 40.29 31.35 11.75 31.35 11.75 31.35 6.2 31.35 1.68 26.91 1.68 21.45 1.68 17.61 3.98 14.09 7.53 12.47 7.53 12.47 8.62 11.97 8.62 11.97 8.62 11.97 8.49 10.8 8.49 10.8 8.48 10.67 8.46 10.55 8.45 10.43 8.42 10.25 8.39 10.08 8.39 9.9 8.39 5.35 12.16 1.65 16.79 1.65 20.13 1.65 23.16 3.61 24.49 6.64 24.49 6.64 25.16 8.16 25.16 8.16 25.16 8.16 26.7 7.49 26.7 7.49 28.08 6.9 29.55 6.6 31.05 6.6 37.07 6.6 41.96 11.41 41.96 17.32 41.96 18.22 41.84 19.14 41.59 20.06 41.59 20.06 41.24 21.37 41.24 21.37 41.24 21.37 42.48 21.97 42.48 21.97 44.23 22.81 45.32 24.51 45.32 26.4 45.32 29.13 43.06 31.35 40.29 31.35Z" fill="rgb(0,173,239)"/></svg>